<?xml version="1.0" encoding="UTF-8" standalone="no"?>
<!-- Created with Inkscape (http://www.inkscape.org/) -->

<svg
   version="1.1"
   id="svg1"
   width="856.76184"
   height="669.79266"
   viewBox="0 0 856.76184 669.79266"
   sodipodi:docname="未命名的作品 2.png"
   xmlns:inkscape="http://www.inkscape.org/namespaces/inkscape"
   xmlns:sodipodi="http://sodipodi.sourceforge.net/DTD/sodipodi-0.dtd"
   xmlns="http://www.w3.org/2000/svg"
   xmlns:svg="http://www.w3.org/2000/svg">
  <defs
     id="defs1" />
  <sodipodi:namedview
     id="namedview1"
     pagecolor="#ffffff"
     bordercolor="#000000"
     borderopacity="0.25"
     inkscape:showpageshadow="2"
     inkscape:pageopacity="0.0"
     inkscape:pagecheckerboard="0"
     inkscape:deskcolor="#d1d1d1">
    <inkscape:page
       x="0"
       y="0"
       width="856.76184"
       height="669.79266"
       id="page2"
       margin="0"
       bleed="0" />
  </sodipodi:namedview>
  <g
     inkscape:groupmode="layer"
     inkscape:label="Image"
     id="g1"
     transform="translate(-433.4978,-972.86384)">
    <path
       style="fill:#000000"
       d="m 736.46186,1641.765 c -25.55621,-4.2893 -51.54782,-21.9514 -64.23896,-43.6523 l -3.67449,-6.2831 -4.12315,0.7415 c -2.26773,0.4079 -10.64815,0.7153 -18.62315,0.6831 -11.89389,-0.048 -15.93785,-0.4639 -22.5,-2.3144 -20.85,-5.8795 -38.68325,-19.2869 -45.42638,-34.1525 -2.41178,-5.317 -2.72558,-14.4785 -0.66485,-19.4105 4.08838,-9.7849 16.86074,-21.6606 30.87349,-28.7061 17.63301,-8.8657 36.2,-13.3299 60.36445,-14.514 l 13.14671,-0.6442 1.68811,3.2644 c 3.01046,5.8216 9.29751,11.6606 15.77099,14.6471 8.07543,3.7255 19.53776,4.0145 26.92315,0.6787 5.74571,-2.5951 13.15146,-9.2857 16.38424,-14.802 4.83406,-8.2488 4.81076,-21.9264 -0.0536,-31.4292 -4.08991,-7.99 -11.49208,-13.836 -21.02991,-16.6087 -13.13836,-3.8194 -28.18737,1.9196 -35.80793,13.6556 l -3.16851,4.8797 -13.5,0.465 c -21.49256,0.7403 -39.49568,4.0955 -57.40309,10.6982 -22.85988,8.4287 -44.0452,24.1734 -53.75085,39.9471 l -2.88969,4.6964 -6.72818,-1.4914 c -46.99668,-10.417 -86.54388,-44.253 -104.16554,-89.1225 -1.92682,-4.9062 -1.9523,-5.2829 -0.32633,-4.8242 13.0776,3.6885 55.8893,4.474 71.76368,1.3167 10.34235,-2.057 30.76653,-7.7455 41,-11.4191 9.85503,-3.5379 32.79479,-13.7664 40.38346,-18.0064 5.1994,-2.9051 6.68331,-3.3466 8,-2.3803 12.81691,9.4057 30.42494,8.7053 42.25407,-1.6808 1.95045,-1.7125 5.07148,-5.942 6.93563,-9.3989 3.08634,-5.7233 3.39102,-7.0451 3.40809,-14.7852 0.0161,-7.2804 -0.37759,-9.3071 -2.74342,-14.1246 -1.51919,-3.0935 -4.91695,-7.6401 -7.55057,-10.1035 -19.21392,-17.9724 -51.60726,-6.288 -53.94173,19.4569 -0.50798,5.6022 -0.70756,5.9561 -4.63818,8.2254 -17.26269,9.9667 -52.2105,23.3319 -72.10735,27.5764 -14.30424,3.0514 -44.06981,3.8487 -58.53385,1.5678 -16.14523,-2.546 -21.92966,-4.4162 -23.2083,-7.5037 -1.44042,-3.4781 -1.40735,-30.7806 0.048,-39.6713 2.06087,-12.5895 6.09389,-24.6367 12.77385,-38.1575 l 6.53831,-13.234 -3.15011,-4.5785 c -14.93038,-21.7006 -17.12565,-51.1514 -5.58128,-74.8762 13.10715,-26.9366 41.92975,-42.1049 73.34951,-38.6014 11.00307,1.2269 30.06899,5.8424 38.71635,9.3725 5.93528,2.4229 5.95621,2.4462 7.22452,8.0307 2.42513,10.6781 7.60075,17.7693 16.98187,23.267 3.90755,2.2899 6.16845,2.8254 13.38791,3.1705 7.78644,0.3723 9.30808,0.1363 14.6872,-2.2777 21.97541,-9.8619 26.47071,-38.1837 8.64629,-54.4742 -6.35943,-5.8122 -12.34561,-8.0646 -21.43273,-8.0646 -7.93952,0 -14.03153,1.9436 -19.27616,6.1499 l -3.82857,3.0706 -7.78127,-3.0749 c -14.67777,-5.8001 -39.66624,-11.1456 -52.10194,-11.1456 -3.21289,0 -6.04048,-0.3375 -6.28353,-0.75 -0.98235,-1.6672 4.27374,-23.3797 7.80951,-32.2605 5.42073,-13.6152 8.86431,-20.1474 16.69791,-31.6742 21.58278,-31.7583 57.40241,-53.6755 97.81646,-59.8517 13.87116,-2.1199 12.9968,-2.4077 13.01952,4.2864 0.10606,31.2381 14.0036,64.295 37.439,89.0529 l 7.99711,8.4484 -0.30617,6.6274 c -0.42043,9.1008 2.55536,16.8715 9.11841,23.811 16.50382,17.4503 42.76059,13.1871 53.51832,-8.6897 3.56753,-7.2549 3.78707,-18.9448 0.49236,-26.2173 -7.03269,-15.5233 -25.00911,-23.4134 -40.77855,-17.8982 l -6,2.0984 -5.37109,-5.7415 c -20.53403,-21.95 -30.12891,-45.6657 -30.12891,-74.4697 0,-10.8572 0.0399,-11.0425 4.00685,-18.619 10.96258,-20.93753 30.57327,-36.38833 55.49315,-43.7218 12.11008,-3.56378 30.44393,-4.43394 42.39579,-2.01218 36.14142,7.32319 62.22788,31.56978 72.17139,67.08128 2.14313,7.6538 2.25843,10.0511 2.66425,55.3966 l 0.42418,47.3965 -4.47329,-0.6131 c -2.46031,-0.3372 -14.61575,-1.1583 -27.01209,-1.8246 -25.27656,-1.3585 -28.16685,-0.9923 -34.23789,4.3381 -9.0161,7.9163 -9.40878,19.8827 -0.93066,28.3608 5.43719,5.4372 8.87582,6.1429 33.99832,6.9772 11,0.3653 22.7,0.9577 26,1.3163 l 6,0.6522 -0.084,8.5849 c -0.11139,11.382 -2.20332,15.2003 -13.09432,23.9001 -9.72185,7.7659 -12.09638,10.616 -13.93521,16.726 -2.12852,7.0725 -2.04341,166.1755 0.0921,172.2283 1.94082,5.5009 4.04504,8.059 11.97769,14.5612 12.67925,10.393 14.86788,14.4117 14.96978,27.487 l 0.0739,9.4876 -6.10053,0.764 c -3.35529,0.4202 -16.91429,1.34 -30.13111,2.044 -23.81761,1.2687 -24.06678,1.3052 -28.11431,4.1101 -5.79543,4.0162 -8.5083,10.0325 -7.95751,17.6471 0.51589,7.1322 3.98235,12.1751 10.86143,15.801 4.33361,2.2842 4.89357,2.3267 22.94203,1.7385 10.175,-0.3316 22.74904,-1.0208 27.94232,-1.5315 5.19327,-0.5108 9.80577,-0.704 10.25,-0.4295 1.17061,0.7235 0.97704,54.2595 -0.23443,64.8349 -4.61596,40.2943 -37.03387,74.2067 -76.95789,80.5056 -7.49716,1.1829 -24.27343,1.1791 -31.34025,-0.01 z m 218.06437,-3.5375 c -28.73241,-5.1942 -53.89229,-24.6304 -66.64842,-51.4865 -8.03379,-16.9139 -8.5757,-20.7256 -8.5757,-60.3207 v -34.8925 l 8.5,-1.7315 c 32.0916,-6.5373 63.16735,-17.5064 88.84809,-31.3617 25.4459,-13.7285 41.6644,-25.8894 62.7009,-47.0141 27.5824,-27.6979 41.681,-49.2871 69.9454,-107.1078 15.938,-32.6046 30.683,-59.4927 32.6278,-59.4982 0.3422,-10e-4 0.9224,1.9107 1.2893,4.2482 0.3669,2.3375 3.5442,17.525 7.0606,33.75 3.5165,16.225 8.5089,39.4 11.0943,51.5 2.5854,12.1 4.9137,22.5625 5.1741,23.25 1.3092,3.4563 -3.0892,-0.059 -16.7305,-13.372 -8.2405,-8.0421 -17.5281,-17.7332 -20.6391,-21.5358 -3.111,-3.8026 -5.9974,-6.7852 -6.4142,-6.628 -1.6749,0.6315 -18.9849,36.1215 -18.4461,37.8192 0.8856,2.7902 28.9554,29.5997 40.7983,38.9666 37.1568,29.3881 74.7354,44.0627 117.4348,45.8588 l 15.2438,0.6412 -5.5047,10 c -21.4307,38.9319 -56.3333,64.5029 -100.2603,73.4546 -5.5201,1.125 -11.3846,2.0454 -13.0322,2.0454 -2.8397,0 -3.1061,0.3642 -5.123,7.0044 -10.9516,36.0558 -46.2928,60.9802 -83.0673,58.5833 -5.225,-0.3405 -10.636,-0.8702 -12.0245,-1.1769 -2.1581,-0.4768 -2.8624,0.043 -4.8517,3.5828 -6.3841,11.3589 -19.5821,24.5847 -33.1915,33.2613 -17.9191,11.4243 -43.89094,16.1943 -66.20817,12.1599 z m -75.71435,-193.6648 c 0.0167,-10.6511 3.47595,-16.0519 17.69282,-27.6226 3.29226,-2.6795 6.14406,-6.1586 7.76659,-9.4749 l 2.56401,-5.2407 -0.26659,-85.5418 -0.2666,-85.5418 -2.8288,-4.0816 c -1.55583,-2.2448 -6.44421,-6.9237 -10.86305,-10.3974 -10.1507,-7.9797 -13.78519,-13.7939 -13.79877,-22.0742 l -0.009,-5.725 3.25,0.6056 c 5.45313,1.0161 28.05143,6.3604 31.37004,7.4187 2.97793,0.9497 3.19636,1.3919 4.79588,9.7103 0.92171,4.7935 4.33544,21.0904 7.58605,36.2154 3.25062,15.125 8.6444,40.325 11.98617,56 3.34177,15.675 8.52737,39.975 11.52356,54 2.99619,14.025 7.21885,33.825 9.38369,44 2.16484,10.175 4.2244,19.6443 4.5768,21.043 0.59608,2.3658 0.027,2.8649 -8.16573,7.1619 -18.77714,9.8483 -39.93756,17.623 -63.30646,23.2598 -5.775,1.393 -11.0625,2.5333 -11.75,2.534 -0.86784,9e-4 -1.24701,-1.9095 -1.24023,-6.2487 z m 106.98416,-45.5 c -0.63133,-3.1625 -3.56755,-17 -6.52494,-30.75 -2.95738,-13.75 -9.01183,-42.1 -13.45433,-63 -4.44249,-20.9 -9.61706,-44.975 -11.49905,-53.5 -6.20805,-28.1213 -8.86441,-41.9846 -8.1765,-42.6725 0.6762,-0.6762 16.56363,6.9312 26.26754,12.5777 l 5.10665,2.9715 2.22232,10.8116 c 1.22227,5.9464 4.84826,22.9617 8.05774,37.8117 16.07433,74.3747 19.18993,88.8719 21.34203,99.3062 l 2.3319,11.3063 -5.0837,4.8447 c -6.2965,6.0007 -18.11182,16.0428 -18.87553,16.0428 -0.31144,0 -1.0828,-2.5875 -1.71413,-5.75 z m 271.54156,-0.3788 c -0.9314,-2.5815 -4.6652,-19.3735 -9.6437,-43.3712 -2.7385,-13.2 -6.5656,-31.2 -8.5048,-40 -1.9392,-8.8 -4.4209,-20.5 -5.5148,-26 -1.094,-5.5 -4.1832,-20.125 -6.865,-32.5 -10.2725,-47.4033 -15.1033,-70.7919 -15.3015,-74.084 -0.2018,-3.3514 -0.037,-3.5001 8.708,-7.8638 l 8.9137,-4.4477 3.5863,4.4354 c 6.8899,8.521 21.6042,23.4948 27.2881,27.7692 11.0224,8.2891 20.5879,23.4977 24.3347,38.6909 4.6589,18.8909 -0.1811,44.7119 -11.1925,59.7125 -3.6027,4.9079 -3.6415,5.0576 -1.9803,7.6467 6.4945,10.1222 12.6669,25.6855 16.713,42.1408 2.0132,8.1872 2.342,12.0793 2.3796,28.1661 0.024,10.2663 -0.3116,19.0216 -0.7458,19.4562 -0.4343,0.4345 -7.74,0.9768 -16.2349,1.2051 -12.4577,0.3347 -15.5411,0.1497 -15.9401,-0.9562 z m -39.2032,-8.3007 c -11.8317,-4.2971 -20.1857,-9.0696 -20.8191,-11.8935 -1.7938,-7.9967 -8.3259,-38.5284 -12.0189,-56.177 -2.4168,-11.55 -5.9734,-28.2 -7.9036,-37 -1.9301,-8.8 -5.0716,-23.65 -6.981,-33 -1.9094,-9.35 -4.4159,-21.0116 -5.57,-25.9147 l -2.0984,-8.9146 2.7794,-2.9674 c 3.7343,-3.987 20.1438,-17.7033 21.1792,-17.7033 0.4532,0 1.3123,2.3625 1.9092,5.25 1.1167,5.4028 6.5182,30.9211 17.0922,80.75 3.3263,15.675 8.0952,38.175 10.5974,50 5.7248,27.0539 12.6001,58.0938 13.233,59.7431 0.721,1.8789 -1.3098,1.4918 -11.3994,-2.1726 z m -187.6734,-42.6706 c -1.4335,-6.27 -3.981,-17.9249 -5.6611,-25.8999 -1.6801,-7.975 -5.285,-24.85 -8.0109,-37.5 -7.2841,-33.8029 -7.8071,-36.5 -7.0778,-36.5 2.4098,0 25.0611,22.6068 37.4091,37.3358 l 5.7308,6.8358 6.8283,-14.3358 c 3.7555,-7.8847 8.0138,-16.6721 9.4627,-19.5274 l 2.6345,-5.1917 -10.7372,-11.2091 c -44.0106,-45.945 -98.59269,-75.6526 -164.11953,-89.3259 -9.56023,-1.995 -17.77273,-3.8685 -18.25,-4.1635 -1.03695,-0.6408 -0.99343,-37.6211 0.0876,-74.4182 0.86806,-29.5489 2.01967,-36.1346 8.61759,-49.2814 12.81787,-25.54042 32.66693,-41.45593 61.74082,-49.50542 9.83309,-2.72242 34.68881,-2.38046 45.16811,0.62142 16.45421,4.71343 32.66731,14.17701 42.64731,24.8932 8.6758,9.3157 19.019,26.083 21.1745,34.3255 0.5442,2.081 0.8851,2.1266 10.8791,1.4574 21.7452,-1.4562 46.9992,3.7214 68.4613,14.0362 22.1628,10.6514 42.2723,28.2871 56.5096,49.5579 7.2174,10.783 13.5351,24.6314 15.158,33.2263 l 1.4011,7.4205 -16.6064,7.8586 c -33.1358,15.6809 -55.6281,34.1174 -77.8143,63.7828 -11.4504,15.3105 -20.7568,31.7729 -42.1759,74.607 -17.031,34.0585 -32.2377,61.3379 -38.9652,69.8999 l -1.8857,2.3999 z"
       id="path1" />
  </g>
</svg>
