<?xml version="1.0" encoding="UTF-8" standalone="no"?>
<!-- Created with Inkscape (http://www.inkscape.org/) -->

<svg
   version="1.1"
   id="svg1"
   width="42.898163"
   height="42.898163"
   viewBox="0 0 42.898163 42.898163"
   xmlns="http://www.w3.org/2000/svg"
   xmlns:svg="http://www.w3.org/2000/svg">
  <defs
     id="defs1" />
  <g
     id="g1"
     transform="translate(-623.04861,-1166.6982)">
    <g
       id="g30"
       transform="translate(-168.02111,350.74406)">
      <g
         id="g2"
         transform="translate(-1.6199828,2.6508804)">
        <rect
           style="opacity:1;fill:#04070a;fill-opacity:1;stroke-width:0.0576208"
           id="rect1"
           width="42.898159"
           height="42.898159"
           x="792.6897"
           y="813.30322"
           ry="9.8035135" />
        <path
           id="path1-4"
           style="display:inline;fill:#ffffff;fill-opacity:1;stroke-width:0.0336139"
           d="m 815.18749,836.30354 0.57033,2.93282 c -0.18365,0.0551 -0.37188,0.10591 -0.56455,0.15238 -0.10112,0.0244 -0.1978,0.0465 -0.27049,0.062 a 1.0413227,6.9892171 0 0 0 0.26471,-3.14724 z m 8.41334,-3.75399 c 0.0115,-4e-5 0.031,0.0642 0.0433,0.14279 0.0123,0.0786 0.11913,0.58908 0.23733,1.13447 0.1182,0.54539 0.28606,1.32439 0.37297,1.73112 0.0869,0.40673 0.16516,0.75842 0.17391,0.78152 0.044,0.11618 -0.10384,-0.002 -0.56237,-0.44945 -0.277,-0.27033 -0.58918,-0.59613 -0.69375,-0.72395 -0.10458,-0.12782 -0.20159,-0.22804 -0.2156,-0.22276 -0.0563,0.0212 -0.6382,1.21416 -0.62009,1.27123 0.0298,0.0938 0.97332,0.99497 1.37141,1.30983 1.24899,0.98785 2.51211,1.48114 3.94741,1.54151 l 0.51241,0.0215 -0.185,0.33614 c -0.72037,1.30866 -1.89357,2.16822 -3.37013,2.46912 -0.18555,0.0378 -0.38272,0.0687 -0.4381,0.0687 -0.0955,0 -0.10441,0.0122 -0.17221,0.23543 -0.36812,1.21197 -1.55605,2.0498 -2.79218,1.96923 -0.17564,-0.0114 -0.35755,-0.0293 -0.40423,-0.0396 -0.0725,-0.016 -0.0962,10e-4 -0.16307,0.12047 -0.2146,0.38181 -0.65823,0.8264 -1.1157,1.11806 -0.60233,0.38401 -1.47537,0.54429 -2.22554,0.40868 -0.96581,-0.1746 -1.81154,-0.82792 -2.24032,-1.73066 -0.27005,-0.56854 -0.28821,-0.69665 -0.28821,-2.0276 v -1.17288 l 0.28572,-0.0582 c 1.07872,-0.21974 2.12329,-0.58844 2.98651,-1.05418 0.85534,-0.46146 1.40052,-0.87029 2.10764,-1.58038 0.92715,-0.93103 1.40106,-1.65672 2.35114,-3.6003 0.53574,-1.09597 1.03134,-1.99963 1.09672,-1.99996 z m -6.57678,-1.20052 h 10e-6 c 6.7e-4,0 0.001,-3e-5 0.002,0 0.0659,0.002 0.56556,0.24327 0.87646,0.42418 l 0.17168,0.0999 0.0747,0.36345 c 0.0411,0.19988 0.16293,0.77179 0.27082,1.27096 0.54032,2.50003 0.64504,2.98735 0.71738,3.33809 l 0.0784,0.38006 -0.17089,0.16282 c -0.21165,0.2017 -0.6088,0.53926 -0.63447,0.53926 -0.0105,0 -0.0363,-0.087 -0.0576,-0.19328 -0.0212,-0.1063 -0.11993,-0.57143 -0.21934,-1.03363 -0.0994,-0.46219 -0.30295,-1.41514 -0.45228,-2.11767 -0.14933,-0.70254 -0.32323,-1.51179 -0.38649,-1.79835 -0.20868,-0.94527 -0.29801,-1.41125 -0.27489,-1.43437 8.1e-4,-8.1e-4 0.002,-10e-4 0.004,-10e-4 z m 8.08192,-0.41302 c 0.0152,0 0.0441,0.0794 0.0642,0.17648 0.0375,0.1816 0.21909,1.03938 0.57452,2.71432 0.11181,0.5269 0.27212,1.28321 0.35623,1.6807 0.19243,0.90939 0.42352,1.9528 0.44479,2.00823 0.0242,0.0632 -0.044,0.0501 -0.38314,-0.0731 -0.39771,-0.14444 -0.67856,-0.30483 -0.69985,-0.39975 -0.0603,-0.2688 -0.27983,-1.29512 -0.40396,-1.88836 -0.0812,-0.38824 -0.20082,-0.94791 -0.2657,-1.24371 -0.0649,-0.29581 -0.17046,-0.79497 -0.23464,-1.10926 -0.0642,-0.31429 -0.14845,-0.70627 -0.18724,-0.87108 l -0.0705,-0.29963 0.0934,-0.0998 c 0.12553,-0.13402 0.67707,-0.59507 0.71187,-0.59507 z m -10.05576,-0.20779 v 1.4e-4 c 0.29385,0.0653 0.78206,0.18231 0.86977,0.21028 0.10009,0.0319 0.10747,0.0468 0.16124,0.32643 0.031,0.16112 0.14572,0.70891 0.25499,1.21732 0.10927,0.50841 0.29058,1.35548 0.40291,1.88238 0.11233,0.5269 0.28663,1.34372 0.38734,1.81515 0.10072,0.47144 0.24263,1.13699 0.3154,1.47902 0.0728,0.34202 0.14204,0.66032 0.15389,0.70733 0.02,0.0795 9.1e-4,0.0963 -0.2745,0.24075 -0.2327,0.12205 -0.47632,0.23466 -0.73051,0.33765 v 0 l -1.49286,-7.67704 a 1.0413227,6.9892171 0 0 0 0,-3.4e-4 1.0413227,6.9892171 0 0 0 -0.0476,-0.53907 z m 11.48192,-0.67943 0.12054,0.14909 c 0.2316,0.28643 0.72624,0.7897 0.91729,0.93338 0.37051,0.27863 0.69202,0.78987 0.81797,1.30057 0.1566,0.635 -0.006,1.50296 -0.37619,2.00719 -0.1211,0.16497 -0.12241,0.17 -0.0666,0.25703 0.2183,0.34025 0.42578,0.86338 0.56178,1.41651 0.0677,0.2752 0.0787,0.40603 0.08,0.94677 8e-4,0.34509 -0.0105,0.63942 -0.0251,0.65403 -0.0146,0.0146 -0.26016,0.0328 -0.54571,0.0405 -0.41875,0.0113 -0.52237,0.005 -0.53578,-0.0322 -0.0313,-0.0868 -0.15684,-0.65122 -0.32419,-1.45788 -0.0921,-0.4437 -0.22067,-1.04875 -0.28585,-1.34455 -0.0652,-0.29581 -0.14863,-0.68909 -0.18541,-0.87397 -0.0368,-0.18487 -0.14062,-0.67648 -0.23076,-1.09245 -0.3453,-1.59341 -0.50766,-2.3796 -0.51432,-2.49026 -0.007,-0.11265 -10e-4,-0.11763 0.29267,-0.26431 z m -8.66136,-6.62963 c 0.29422,0.004 0.59115,0.0321 0.76727,0.0826 0.55309,0.15844 1.09812,0.47659 1.43358,0.8368 0.29163,0.31314 0.63929,0.87671 0.71174,1.15377 0.0183,0.07 0.0298,0.0715 0.36568,0.049 0.73095,-0.0489 1.57982,0.12505 2.30125,0.47178 0.74497,0.35803 1.42094,0.95086 1.89951,1.66586 0.24261,0.36246 0.45498,0.82796 0.50953,1.11687 l 0.0471,0.24942 -0.55824,0.26418 c -1.11383,0.52709 -1.86989,1.14677 -2.61565,2.14394 -0.3849,0.51464 -0.69772,1.06802 -1.4177,2.50785 -0.57248,1.14484 -1.08362,2.06182 -1.30976,2.34963 l -0.0634,0.0807 -0.0876,-0.38321 c -0.0482,-0.21076 -0.13379,-0.60254 -0.19026,-0.87061 -0.0565,-0.26807 -0.17768,-0.83531 -0.26931,-1.26053 -0.24484,-1.13625 -0.26244,-1.22691 -0.23792,-1.22691 0.081,0 0.84244,0.75991 1.2575,1.25501 l 0.19263,0.22979 0.22952,-0.48189 c 0.12623,-0.26504 0.26938,-0.56042 0.31808,-0.65639 l 0.0886,-0.17451 -0.36096,-0.37678 c -1.47937,-1.54439 -3.31407,-2.54299 -5.51669,-3.0026 -0.19922,-0.0416 -0.38105,-0.0816 -0.4943,-0.10833 a 1.0413227,6.9892171 0 0 0 -0.14436,-0.72171 c -8.8e-4,-0.4779 0.009,-1.14554 0.0282,-1.81141 0.0292,-0.99326 0.0679,-1.21462 0.28966,-1.65654 0.43086,-0.85851 1.09804,-1.39351 2.07533,-1.66409 0.16526,-0.0457 0.45677,-0.0658 0.751,-0.0617 z m -7.45889,-0.007 v 2.7e-4 c 0.25517,-0.0121 0.50968,9.2e-4 0.71056,0.0416 1.21485,0.24616 2.09174,1.06121 2.42598,2.25489 0.072,0.25728 0.0759,0.33786 0.0896,1.8621 l 0.009,0.98051 v 0 a 1.0413227,6.9892171 0 0 0 -0.12651,0.59442 l -0.0184,-0.002 c -0.0827,-0.0113 -0.49128,-0.0389 -0.90797,-0.0613 -0.84964,-0.0457 -0.94681,-0.0334 -1.15088,0.14582 -0.30307,0.26609 -0.3163,0.66835 -0.0313,0.95333 0.18277,0.18277 0.29841,0.20646 1.14287,0.23451 0.29927,0.01 0.61394,0.0249 0.78186,0.0366 a 1.0413227,6.9892171 0 0 0 -0.1986,4.10556 1.0413227,6.9892171 0 0 0 0.33246,5.11982 l -0.0452,0.006 c -0.11278,0.0141 -0.56854,0.045 -1.01281,0.0687 -0.80061,0.0426 -0.80901,0.0438 -0.94507,0.13813 -0.19481,0.135 -0.28598,0.33728 -0.26747,0.59324 0.0173,0.23974 0.13386,0.40924 0.3651,0.53112 0.14567,0.0768 0.16454,0.0782 0.77121,0.0584 0.34203,-0.0111 0.76466,-0.0343 0.93922,-0.0515 0.17457,-0.0172 0.32962,-0.0237 0.34455,-0.0144 0.0394,0.0243 0.0328,1.82384 -0.008,2.17932 -0.15516,1.35445 -1.24483,2.49439 -2.58683,2.70612 -0.25201,0.0398 -0.81598,0.0396 -1.05352,-3.3e-4 v 0 c -0.85905,-0.14418 -1.7327,-0.73787 -2.1593,-1.46733 l -0.1235,-0.2112 -0.13859,0.0249 c -0.0762,0.0137 -0.35792,0.024 -0.62599,0.023 -0.3998,-0.002 -0.53573,-0.0156 -0.75632,-0.0778 -0.70085,-0.19763 -1.30034,-0.6483 -1.527,-1.14799 -0.0811,-0.17873 -0.0916,-0.48667 -0.0223,-0.65245 0.13742,-0.32891 0.56674,-0.72814 1.03776,-0.96496 0.59272,-0.29801 1.21686,-0.44805 2.02912,-0.48787 l 0.4419,-0.0217 0.0567,0.10977 c 0.10119,0.19569 0.31254,0.39194 0.53014,0.49233 0.27144,0.12523 0.65676,0.13497 0.90501,0.0228 0.19314,-0.0872 0.44203,-0.31215 0.55069,-0.49757 0.1625,-0.27728 0.16174,-0.73705 -0.002,-1.05648 -0.13748,-0.26857 -0.38627,-0.46504 -0.70688,-0.55824 -0.44163,-0.12838 -0.94751,0.0645 -1.20366,0.45898 l -0.10649,0.16406 -0.45379,0.0156 c -0.72245,0.0249 -1.32764,0.13763 -1.92958,0.35957 -0.76841,0.28332 -1.48051,0.81257 -1.80675,1.34279 l -0.0972,0.15789 -0.22617,-0.0502 c -1.57975,-0.35015 -2.90903,-1.48754 -3.50136,-2.99578 -0.0648,-0.16491 -0.0656,-0.17758 -0.011,-0.16216 0.43959,0.12399 1.87866,0.15045 2.41226,0.0443 0.34765,-0.0691 1.03419,-0.26038 1.37817,-0.38387 0.33127,-0.11892 1.10234,-0.46272 1.35743,-0.60525 0.17477,-0.0976 0.22465,-0.11251 0.26891,-0.08 0.43083,0.31616 1.02269,0.29259 1.42032,-0.0565 0.0656,-0.0576 0.17047,-0.19972 0.23313,-0.31592 0.10375,-0.19238 0.11399,-0.23681 0.11456,-0.49699 5.4e-4,-0.24472 -0.0127,-0.31286 -0.0922,-0.4748 -0.0511,-0.10398 -0.16522,-0.25681 -0.25374,-0.33962 -0.64586,-0.60412 -1.73478,-0.21136 -1.81325,0.65403 -0.0171,0.18831 -0.0237,0.20025 -0.15586,0.27653 -0.58027,0.33502 -1.755,0.78427 -2.42381,0.92694 -0.48083,0.10257 -1.48141,0.12933 -1.9676,0.0527 -0.54271,-0.0856 -0.7371,-0.14839 -0.78008,-0.25217 -0.0484,-0.11692 -0.0473,-1.03468 0.002,-1.33353 0.0693,-0.42319 0.20482,-0.82816 0.42936,-1.28265 l 0.21981,-0.44486 -0.1059,-0.15389 c -0.50187,-0.72944 -0.57562,-1.71936 -0.18757,-2.51684 0.44058,-0.90545 1.40943,-1.41532 2.46557,-1.29755 0.36986,0.0412 1.01069,0.19634 1.30136,0.315 0.19951,0.0814 0.20021,0.0822 0.24285,0.26996 0.0815,0.35893 0.25551,0.59731 0.57084,0.78211 0.13135,0.077 0.20737,0.095 0.45005,0.10656 0.26173,0.0125 0.31283,0.005 0.49364,-0.0765 0.73868,-0.3315 0.88979,-1.28352 0.29064,-1.83111 -0.21376,-0.19537 -0.41495,-0.27108 -0.7204,-0.27108 -0.26688,0 -0.4717,0.0654 -0.64799,0.20674 l -0.12868,0.1032 -0.26156,-0.10333 c -0.49337,-0.19497 -1.33332,-0.37468 -1.75133,-0.37468 -0.108,0 -0.20304,-0.0113 -0.21121,-0.0252 -0.033,-0.056 0.14363,-0.78586 0.26248,-1.08438 0.18221,-0.45766 0.29801,-0.67722 0.56133,-1.06468 0.72548,-1.06752 1.92951,-1.80431 3.28799,-2.01191 0.46626,-0.0713 0.43688,-0.0809 0.43764,0.1441 0.004,1.05004 0.47066,2.16121 1.25842,2.99342 l 0.26885,0.28401 -0.0103,0.22276 c -0.0141,0.30591 0.0859,0.5671 0.30653,0.80037 0.55476,0.58657 1.43733,0.44327 1.79894,-0.29209 0.11992,-0.24387 0.12729,-0.6368 0.0165,-0.88125 -0.2364,-0.5218 -0.84061,-0.78703 -1.37069,-0.60164 l -0.20168,0.0705 -0.18054,-0.19295 c -0.69023,-0.73783 -1.01275,-1.53504 -1.01275,-2.50326 0,-0.36495 10e-4,-0.37118 0.13465,-0.62586 0.36849,-0.70379 1.02772,-1.22311 1.86538,-1.46962 0.20353,-0.0599 0.45932,-0.0972 0.71449,-0.10931 z" />
      </g>
    </g>
  </g>
</svg>
