<?xml version="1.0" encoding="UTF-8" standalone="no"?>
<!-- Created with Inkscape (http://www.inkscape.org/) -->

<svg
   version="1.1"
   id="svg1"
   width="856.76111"
   height="669.78918"
   viewBox="0 0 856.76111 669.78918"
   sodipodi:docname="未命名的作品 2.png"
   inkscape:export-filename="未命名的作品 2.svg"
   inkscape:export-xdpi="96"
   inkscape:export-ydpi="96"
   xmlns:inkscape="http://www.inkscape.org/namespaces/inkscape"
   xmlns:sodipodi="http://sodipodi.sourceforge.net/DTD/sodipodi-0.dtd"
   xmlns="http://www.w3.org/2000/svg"
   xmlns:svg="http://www.w3.org/2000/svg">
  <defs
     id="defs1" />
  <sodipodi:namedview
     id="namedview1"
     pagecolor="#ffffff"
     bordercolor="#000000"
     borderopacity="0.25"
     inkscape:showpageshadow="2"
     inkscape:pageopacity="0.0"
     inkscape:pagecheckerboard="0"
     inkscape:deskcolor="#d1d1d1"
     inkscape:export-bgcolor="#ffffff1f">
    <inkscape:page
       x="0"
       y="0"
       width="856.76111"
       height="669.78918"
       id="page2"
       margin="0"
       bleed="0" />
  </sodipodi:namedview>
  <g
     inkscape:groupmode="layer"
     inkscape:label="Image"
     id="g1"
     transform="translate(-319.65698,-1005.1688)">
    <g
       id="g30"
       transform="translate(-168.02111,350.74406)"
       inkscape:groupmode="layer">
      <path
         id="path1-4"
         style="display:inline;fill:#000000"
         d="m 803.73882,654.54607 c -7.59121,0.3603 -15.20082,1.4701 -21.25586,3.252 -24.91988,7.3335 -44.53156,22.7832 -55.49414,43.7206 -3.96695,7.5765 -4.00586,7.762 -4.00586,18.6192 0,28.804 9.59488,52.5207 30.12891,74.4707 l 5.37109,5.7402 6,-2.0976 c 15.76944,-5.5152 33.74465,2.3751 40.77734,17.8984 3.29471,7.2725 3.07535,18.9619 -0.49218,26.2168 -10.75773,21.8768 -37.01376,26.1398 -53.51758,8.6895 -6.56305,-6.9395 -9.53957,-14.7098 -9.11914,-23.8106 l 0.30664,-6.6269 -7.99805,-8.4493 c -23.4354,-24.7579 -37.33144,-57.8146 -37.4375,-89.0527 -0.0227,-6.6941 0.85163,-6.407 -13.01953,-4.2871 -40.41405,6.1762 -76.23363,28.0952 -97.81641,59.8535 -7.8336,11.5268 -11.27849,18.0586 -16.69922,31.6738 -3.53577,8.8808 -8.79094,30.5926 -7.80859,32.2598 0.24305,0.4125 3.07031,0.75 6.2832,0.75 12.4357,0 37.4238,5.3464 52.10157,11.1465 l 7.78125,3.0742 3.82812,-3.0703 c 5.24463,-4.2063 11.33783,-6.1504 19.27735,-6.1504 9.08712,0 15.07221,2.2523 21.43164,8.0645 17.82442,16.2905 13.32892,44.6127 -8.64649,54.4746 -5.37912,2.414 -6.89911,2.6496 -14.68555,2.2773 -7.21946,-0.3451 -9.48112,-0.88 -13.38867,-3.1699 -9.38112,-5.4977 -14.55729,-12.5895 -16.98242,-23.2676 -1.26831,-5.5845 -1.28933,-5.6083 -7.22461,-8.0312 -8.64736,-3.5301 -27.71177,-8.1442 -38.71484,-9.3711 -31.41976,-3.5035 -60.24246,11.6649 -73.34961,38.6015 -11.54437,23.7248 -9.3503,53.1744 5.58008,74.875 l 3.15039,4.5782 -6.53907,13.23433 c -6.67996,13.5208 -10.71256,25.5687 -12.77343,38.1582 -1.45535,8.8907 -1.4873,36.1938 -0.0469,39.6719 1.27864,3.0875 7.0618,4.956 23.20703,7.502 14.46404,2.2809 44.23092,1.485 58.53516,-1.5664 19.89685,-4.2446 54.84473,-17.6095 72.10742,-27.5762 3.93062,-2.2693 4.12874,-2.6244 4.63672,-8.2266 2.33447,-25.7449 34.72944,-37.4294 53.94336,-19.457 2.63362,2.4634 6.02964,7.01 7.54883,10.1035 2.36583,4.8175 2.76024,6.8446 2.74414,14.125 -0.0171,7.7401 -0.32186,9.0619 -3.4082,14.7852 -1.86415,3.4569 -4.9851,7.6859 -6.93555,9.3984 -11.82913,10.3861 -29.437,11.0873 -42.25391,1.6816 -1.31669,-0.9663 -2.8006,-0.5242 -8,2.3809 -7.58867,4.24 -30.52778,14.468 -40.38281,18.0059 -10.23347,3.6736 -30.65765,9.3629 -41,11.4199 -15.87438,3.1573 -58.68607,2.3701 -71.76367,-1.3184 -1.62597,-0.4587 -1.60065,-0.082 0.32617,4.8242 17.62166,44.8695 57.16738,78.7061 104.16406,89.1231 l 6.72852,1.4922 2.89062,-4.6973 c 9.70565,-15.7737 30.89012,-31.5186 53.75,-39.9473 17.90741,-6.6027 35.91174,-9.9569 57.4043,-10.6972 l 13.5,-0.4649 3.16797,-4.8808 c 7.62056,-11.736 22.67023,-17.4737 35.80859,-13.6543 9.53783,2.7727 16.93939,8.6174 21.0293,16.6074 4.86436,9.5028 4.88679,23.1809 0.0527,31.4297 -3.23278,5.5163 -10.6371,12.2076 -16.38281,14.8027 -7.38539,3.3358 -18.8484,3.0458 -26.92383,-0.6797 -6.47348,-2.9865 -12.76102,-8.8249 -15.77148,-14.6465 l -1.6875,-3.2656 -13.14649,0.6445 c -24.16445,1.1844 -42.73222,5.648 -60.36523,14.5137 -14.01275,7.0455 -26.78467,18.9222 -30.87305,28.7071 -2.06073,4.932 -1.74771,14.0931 0.66407,19.4101 6.74313,14.8656 24.57773,28.2729 45.42773,34.1524 6.56215,1.8505 10.60611,2.2664 22.5,2.3144 7.975,0.032 16.35532,-0.2757 18.62305,-0.6836 l 4.12304,-0.7402 3.67383,6.2832 c 12.69114,21.7009 38.68207,39.363 64.23828,43.6523 v 0 c 7.06682,1.1891 23.84464,1.1927 31.3418,0.01 39.92399,-6.2989 72.34109,-40.2116 76.95699,-80.5059 1.2115,-10.5754 1.405,-64.1105 0.2344,-64.834 -0.4442,-0.2745 -5.0567,-0.081 -10.25,0.4297 -5.1933,0.5107 -17.7664,1.1997 -27.9414,1.5313 -18.0484,0.5882 -18.6097,0.5459 -22.9433,-1.7383 -6.8791,-3.6259 -10.3455,-8.6686 -10.8614,-15.8008 -0.5508,-7.6146 2.1616,-13.6322 7.9571,-17.6484 4.0475,-2.8049 4.2976,-2.8407 28.1152,-4.1094 13.2168,-0.704 26.7756,-1.6228 30.1309,-2.043 l 1.3437,-0.1679 a 30.978891,207.92613 0 0 1 -9.8906,-152.31253 30.978891,207.92613 0 0 1 5.9082,-122.1387 c -4.9954,-0.3489 -14.3569,-0.7944 -23.2598,-1.0898 -25.1225,-0.8345 -28.5628,-1.5394 -34,-6.9766 -8.47811,-8.4781 -8.08445,-20.445 0.9317,-28.3613 6.071,-5.3304 8.9617,-5.6964 34.2382,-4.3379 12.3964,0.6663 24.5514,1.487 27.0118,1.8242 l 0.5468,0.074 a 30.978891,207.92613 0 0 1 3.7637,-17.6836 v 0 l -0.2617,-29.1699 c -0.4058,-45.3455 -0.5209,-47.7427 -2.6641,-55.3965 -9.9435,-35.5115 -36.0304,-59.7588 -72.17186,-67.082 -5.97593,-1.2109 -13.54747,-1.5986 -21.13867,-1.2383 z m 221.89848,0.1973 c -8.753,-0.1204 -17.4253,0.4747 -22.3418,1.8359 -29.0739,8.0495 -48.9224,23.9656 -61.7403,49.5058 -6.5979,13.147 -7.7491,19.7324 -8.6172,49.2813 -0.5819,19.8095 -0.8639,39.6713 -0.8378,53.8887 a 30.978891,207.92613 0 0 1 4.2949,21.4707 c 3.3689,0.7964 8.7783,1.9859 14.7051,3.2226 65.5268,13.6733 120.1085,43.3812 164.1191,89.3262 l 10.7382,11.209 -2.6347,5.1914 c -1.4489,2.8553 -5.7074,11.6426 -9.4629,19.5273 l -6.8281,14.336 -5.7305,-6.836 c -12.348,-14.729 -35.0004,-37.3359 -37.4102,-37.3359 -0.7293,0 -0.2059,2.6971 7.0782,36.5 2.7259,12.65 6.3316,29.525 8.0117,37.50003 1.6801,7.975 4.2266,19.6304 5.6601,25.9004 l 2.6075,11.4004 1.8847,-2.4004 c 6.7275,-8.562 21.9339,-35.8419 38.9649,-69.90043 21.4191,-42.8341 30.7254,-59.2969 42.1758,-74.6074 22.1862,-29.6654 44.6786,-48.1004 77.8144,-63.7813 l 16.6074,-7.8593 -1.4023,-7.42 c -1.6229,-8.5949 -7.9408,-22.4435 -15.1582,-33.2265 -14.2373,-21.2708 -34.347,-38.9072 -56.5098,-49.5586 -21.4621,-10.3148 -46.7157,-15.4914 -68.4609,-14.0352 -9.994,0.6692 -10.3347,0.622 -10.8789,-1.459 -2.1555,-8.2425 -12.4981,-25.0085 -21.1739,-34.3242 -9.98,-10.7161 -26.1942,-20.1811 -42.6484,-24.8945 -5.2396,-1.5009 -14.0732,-2.3366 -22.8261,-2.457 z m 257.6718,197.2285 -8.9141,4.4472 c -8.745,4.3637 -8.9088,4.5119 -8.707,7.8633 0.1982,3.2921 5.0283,26.6807 15.3008,74.084 2.6818,12.375 5.7712,27 6.8652,32.5 1.0939,5.5 3.5765,17.2 5.5157,26 1.9392,8.80003 5.7654,26.80003 8.5039,40.00003 4.9785,23.9977 8.7131,40.7896 9.6445,43.3711 0.399,1.1059 3.4817,1.2917 15.9394,0.957 8.4949,-0.2283 15.8001,-0.7706 16.2344,-1.2051 0.4342,-0.4346 0.7701,-9.1907 0.7461,-19.457 -0.038,-16.0868 -0.3657,-19.9788 -2.3789,-28.166 -4.0461,-16.4553 -10.2184,-32.0184 -16.7129,-42.14063 -1.6612,-2.5891 -1.6222,-2.7386 1.9805,-7.6465 11.0114,-15.0006 15.8503,-40.822 11.1914,-59.7129 -3.7468,-15.1932 -13.3116,-30.4023 -24.334,-38.6914 -5.6839,-4.2744 -20.3992,-19.2466 -27.2891,-27.7676 z m -341.582,20.2129 a 30.978891,207.92613 0 0 1 1.416,16.0371 30.978891,207.92613 0 0 1 0,0.01 l 44.4121,228.38873 v 0 c 7.5621,-3.064 14.8096,-6.414 21.7324,-10.0449 8.1928,-4.297 8.7622,-4.7963 8.1661,-7.1621 -0.3524,-1.3987 -2.4133,-10.868 -4.5782,-21.043 -2.1648,-10.175 -6.3866,-29.975 -9.3828,-44 -2.9962,-14.025 -8.1816,-38.32503 -11.5234,-54.00003 -3.3418,-15.675 -8.7357,-40.875 -11.9863,-56 -3.2507,-15.125 -6.6643,-31.4213 -7.586,-36.2148 -1.5995,-8.3184 -1.8189,-8.7613 -4.7968,-9.711 -2.6091,-0.832 -17.1333,-4.3118 -25.875,-6.2558 z m 299.1543,6.1816 c -1.0354,0 -17.4435,13.7161 -21.1778,17.7031 l -2.7793,2.9688 2.0977,8.914 c 1.1541,4.9031 3.6609,16.5641 5.5703,25.9141 1.9094,9.35 5.0504,24.2 6.9805,33 1.9302,8.8 5.4875,25.45 7.9043,37.00003 3.693,17.6486 10.2238,48.181 12.0176,56.1777 0.6334,2.8239 8.9886,7.5955 20.8203,11.8926 10.0896,3.6644 12.1194,4.0527 11.3984,2.1738 -0.6329,-1.6493 -7.5076,-32.6902 -13.2324,-59.7441 -2.5022,-11.825 -7.2714,-34.32503 -10.5977,-50.00003 -10.574,-49.8289 -15.9751,-75.3472 -17.0918,-80.75 -0.5969,-2.8875 -1.4569,-5.25 -1.9101,-5.25 z m -240.4336,12.2871 c -0.061,0 -0.1032,0.017 -0.1269,0.041 -0.688,0.6879 1.9696,14.5506 8.1777,42.6719 1.882,8.525 7.0555,32.6 11.498,53.5 4.4425,20.90003 10.4977,49.25003 13.4551,63.00003 2.9574,13.75 5.8941,27.5875 6.5254,30.75 0.6313,3.1625 1.4014,5.75 1.7129,5.75 0.7637,0 12.5785,-10.0423 18.875,-16.043 l 5.084,-4.8437 -2.3321,-11.3067 c -2.1521,-10.4343 -5.2674,-24.9319 -21.3417,-99.30663 -3.2095,-14.85 -6.8344,-31.8641 -8.0567,-37.8105 l -2.2226,-10.8125 -5.1075,-2.9707 c -9.249,-5.3821 -24.1153,-12.545 -26.0742,-12.6192 -0.024,-9e-4 -0.046,0 -0.066,0 z m 195.6562,35.7149 c -1.9448,0.01 -16.6889,26.8934 -32.6269,59.498 -28.2644,57.82073 -42.3629,79.40953 -69.9453,107.10743 -21.0365,21.1247 -37.2553,33.2871 -62.7012,47.0156 -25.6807,13.8553 -56.756,24.8241 -88.8476,31.3614 l -8.5,1.7304 v 34.8926 c 0,39.5951 0.5404,43.4064 8.5742,60.3203 12.7561,26.8561 37.916,46.2922 66.6484,51.4864 22.3173,4.0344 48.2899,-0.7339 66.209,-12.1582 13.6094,-8.6766 26.8073,-21.9029 33.1914,-33.2618 1.9893,-3.5398 2.6934,-4.0607 4.8515,-3.5839 1.3885,0.3067 6.8004,0.8372 12.0254,1.1777 36.7745,2.3969 72.1148,-22.5282 83.0664,-58.584 2.0169,-6.6402 2.2834,-7.0039 5.1231,-7.0039 1.6476,0 7.5131,-0.9199 13.0332,-2.0449 43.927,-8.9517 78.8291,-34.5232 100.2598,-73.4551 l 5.5039,-10 -15.2442,-0.6406 c -42.6994,-1.7961 -80.2768,-16.4713 -117.4336,-45.8594 -11.8429,-9.3669 -39.9132,-36.1766 -40.7988,-38.9668 -0.5388,-1.6977 16.7724,-37.18693 18.4473,-37.81843 0.4168,-0.1572 3.303,2.82443 6.414,6.62703 3.111,3.8026 12.3982,13.495 20.6387,21.5371 13.6413,13.313 18.0397,16.8274 16.7305,13.3711 -0.2604,-0.6875 -2.5885,-11.15 -5.1739,-23.25 -2.5854,-12.1 -7.5792,-35.27503 -11.0957,-51.50003 -3.5164,-16.225 -6.6936,-31.4125 -7.0605,-33.75 -0.3669,-2.3375 -0.9469,-4.249 -1.2891,-4.248 z M 945.8111,1038.048 a 30.978891,207.92613 0 0 1 -7.875,93.6289 c 2.1624,-0.4629 5.0386,-1.12 8.0469,-1.8457 5.7318,-1.3825 11.3314,-2.8943 16.7949,-4.5332 z" />
    </g>
  </g>
</svg>
